{"accessors" : [{"bufferView" : 0, "byteOffset" : 0, "componentType" : 5123, "count" : 240, "type" : "SCALAR", "max" : [239], "min" : [0]}, {"bufferView" : 1, "byteOffset" : 0, "componentType" : 5126, "count" : 240, "type" : "VEC3", "max" : [0.9510578513145447, 0.9999999403953552, 1], "min" : [-0.9510578513145447, -0.9999999403953552, -1], "name" : "POSITION"}, {"bufferView" : 1, "byteOffset" : 12, "componentType" : 5126, "count" : 240, "type" : "VEC3", "max" : [0.9920817613601685, 0.9435257315635681, 0.9435280561447144], "min" : [-0.9920817613601685, -0.9435257315635681, -0.9435280561447144], "name" : "NORMAL"}, {"bufferView" : 1, "byteOffset" : 24, "componentType" : 5126, "count" : 240, "type" : "VEC2", "max" : [1, 1], "min" : [0, 0.5276179909706116], "name" : "TEXCOORD_0"}, {"bufferView" : 0, "byteOffset" : 480, "componentType" : 5123, "count" : 618, "type" : "SCALAR", "max" : [617], "min" : [0]}, {"bufferView" : 2, "byteOffset" : 0, "componentType" : 5126, "count" : 618, "type" : "VEC3", "max" : [0.051391348242759705, -0.08831576257944107, 1.7439347505569458], "min" : [0.012583400122821331, -0.10760336369276047, 1.705186367034912], "name" : "POSITION"}, {"bufferView" : 2, "byteOffset" : 12, "componentType" : 5126, "count" : 618, "type" : "VEC3", "max" : [0.9405999183654785, 1.0000044107437134, 0.9512285590171814], "min" : [-0.9471085071563721, -1.0000042915344238, -0.9485185146331787], "name" : "NORMAL"}, {"bufferView" : 2, "byteOffset" : 24, "componentType" : 5126, "count" : 618, "type" : "VEC2", "max" : [0.9646214246749878, 0.9818061590194702], "min" : [0.019903719425201416, 0.020990610122680664], "name" : "TEXCOORD_0"}, {"bufferView" : 0, "byteOffset" : 1716, "componentType" : 5123, "count" : 618, "type" : "SCALAR", "max" : [617], "min" : [0]}, {"bufferView" : 3, "byteOffset" : 0, "componentType" : 5126, "count" : 618, "type" : "VEC3", "max" : [-0.012855509296059608, -0.08831578493118286, 1.7439743280410767], "min" : [-0.051509179174900055, -0.10760337859392166, 1.705146074295044], "name" : "POSITION"}, {"bufferView" : 3, "byteOffset" : 12, "componentType" : 5126, "count" : 618, "type" : "VEC3", "max" : [0.9310512542724609, 1.0000044107437134, 0.9478650093078613], "min" : [-0.94915771484375, -1.0000042915344238, -0.9364779591560364], "name" : "NORMAL"}, {"bufferView" : 3, "byteOffset" : 24, "componentType" : 5126, "count" : 618, "type" : "VEC2", "max" : [0.9585750699043274, 0.966354489326477], "min" : [0.006885886192321777, 0.022762417793273926], "name" : "TEXCOORD_0"}, {"bufferView" : 0, "byteOffset" : 2952, "componentType" : 5123, "count" : 12282, "type" : "SCALAR", "max" : [12281], "min" : [0]}, {"bufferView" : 4, "byteOffset" : 0, "componentType" : 5126, "count" : 12282, "type" : "VEC3", "max" : [0.09579432010650635, 0.08657767623662949, 1.8330845832824707], "min" : [-0.09610731899738312, -0.13974513113498688, 1.520606279373169], "name" : "POSITION"}, {"bufferView" : 4, "byteOffset" : 12, "componentType" : 5126, "count" : 12282, "type" : "VEC3", "max" : [0.999221682548523, 0.9999959468841553, 0.9998695850372314], "min" : [-0.9992172718048096, -0.9999846816062927, -0.9999936819076538], "name" : "NORMAL"}, {"bufferView" : 4, "byteOffset" : 24, "componentType" : 5126, "count" : 12282, "type" : "VEC2", "max" : [0.9943000078201294, 0.9807000160217285], "min" : [0.004999999888241291, 0.004350006580352783], "name" : "TEXCOORD_0"}, {"bufferView" : 0, "byteOffset" : 27516, "componentType" : 5123, "count" : 300, "type" : "SCALAR", "max" : [299], "min" : [0]}, {"bufferView" : 5, "byteOffset" : 0, "componentType" : 5126, "count" : 300, "type" : "VEC3", "max" : [0.027654819190502167, -0.04983238875865936, 1.6774992942810059], "min" : [-0.027654817327857018, -0.11608579009771347, 1.6412074565887451], "name" : "POSITION"}, {"bufferView" : 5, "byteOffset" : 12, "componentType" : 5126, "count" : 300, "type" : "VEC3", "max" : [0.9971888661384583, 0.7650108337402344, 0.8775854110717773], "min" : [-0.9970919489860535, -0.9974792003631592, -0.9858447909355164], "name" : "NORMAL"}, {"bufferView" : 5, "byteOffset" : 24, "componentType" : 5126, "count" : 300, "type" : "VEC2", "max" : [0.9808249473571777, 0.983213484287262], "min" : [0.051069796085357666, 0.02829587459564209], "name" : "TEXCOORD_0"}, {"bufferView" : 0, "byteOffset" : 28116, "componentType" : 5123, "count" : 3978, "type" : "SCALAR", "max" : [3977], "min" : [0]}, {"bufferView" : 6, "byteOffset" : 0, "componentType" : 5126, "count" : 3978, "type" : "VEC3", "max" : [0.11377771198749542, 0.10520000755786896, 1.859403371810913], "min" : [-0.11491844803094864, -0.13517066836357117, 1.569674015045166], "name" : "POSITION"}, {"bufferView" : 6, "byteOffset" : 12, "componentType" : 5126, "count" : 3978, "type" : "VEC3", "max" : [0.9998970627784729, 0.9950951933860779, 0.9984439611434937], "min" : [-0.9996504783630371, -0.9987750053405762, -0.9774497151374817], "name" : "NORMAL"}, {"bufferView" : 6, "byteOffset" : 24, "componentType" : 5126, "count" : 3978, "type" : "VEC2", "max" : [0.9954569935798645, 0.9934333562850952], "min" : [0.004082067403942347, 0.029020369052886963], "name" : "TEXCOORD_0"}, {"bufferView" : 0, "byteOffset" : 36072, "componentType" : 5123, "count" : 1860, "type" : "SCALAR", "max" : [1859], "min" : [0]}, {"bufferView" : 7, "byteOffset" : 0, "componentType" : 5126, "count" : 1860, "type" : "VEC3", "max" : [0.08233152329921722, 0.003492143703624606, 1.735351800918579], "min" : [-0.08233150839805603, -0.12727051973342896, 1.695070743560791], "name" : "POSITION"}, {"bufferView" : 7, "byteOffset" : 12, "componentType" : 5126, "count" : 1860, "type" : "VEC3", "max" : [0.9959604740142822, 0.9992064833641052, 1.000001311302185], "min" : [-0.9959588646888733, -0.9999126195907593, -0.9994270205497742], "name" : "NORMAL"}, {"bufferView" : 7, "byteOffset" : 24, "componentType" : 5126, "count" : 1860, "type" : "VEC2", "max" : [0.9907448887825012, 0.998046875], "min" : [0.001953125, 0.001953125], "name" : "TEXCOORD_0"}, {"bufferView" : 0, "byteOffset" : 39792, "componentType" : 5123, "count" : 6294, "type" : "SCALAR", "max" : [6293], "min" : [0]}, {"bufferView" : 8, "byteOffset" : 0, "componentType" : 5126, "count" : 6294, "type" : "VEC3", "max" : [0.5314636826515198, 0.11516408622264862, 1.3544178009033203], "min" : [-0.5314702987670898, -0.1485922634601593, 0.10006244480609894], "name" : "POSITION"}, {"bufferView" : 8, "byteOffset" : 12, "componentType" : 5126, "count" : 6294, "type" : "VEC3", "max" : [0.9993661642074585, 0.9918133616447449, 0.8005279302597046], "min" : [-0.9993663430213928, -0.9985232949256897, -0.9900039434432983], "name" : "NORMAL"}, {"bufferView" : 8, "byteOffset" : 24, "componentType" : 5126, "count" : 6294, "type" : "VEC2", "max" : [0.9857610464096069, 0.9892195463180542], "min" : [0.018731044605374336, 0.018369674682617188], "name" : "TEXCOORD_0"}, {"bufferView" : 0, "byteOffset" : 52380, "componentType" : 5123, "count" : 4416, "type" : "SCALAR", "max" : [4415], "min" : [0]}, {"bufferView" : 9, "byteOffset" : 0, "componentType" : 5126, "count" : 4416, "type" : "VEC3", "max" : [0.20601597428321838, 0.12276717275381088, 1.0938842296600342], "min" : [-0.20611445605754852, -0.1331939846277237, 0.15630263090133667], "name" : "POSITION"}, {"bufferView" : 9, "byteOffset" : 12, "componentType" : 5126, "count" : 4416, "type" : "VEC3", "max" : [0.9997664093971252, 0.9999797344207764, 0.9957489967346191], "min" : [-0.998443603515625, -0.9999328255653381, -0.9951620101928711], "name" : "NORMAL"}, {"bufferView" : 9, "byteOffset" : 24, "componentType" : 5126, "count" : 4416, "type" : "VEC2", "max" : [1.0038964748382568, 0.9878600239753723], "min" : [0.018504273146390915, 0.08143603801727295], "name" : "TEXCOORD_0"}, {"bufferView" : 0, "byteOffset" : 61212, "componentType" : 5123, "count" : 4248, "type" : "SCALAR", "max" : [4247], "min" : [0]}, {"bufferView" : 10, "byteOffset" : 0, "componentType" : 5126, "count" : 4248, "type" : "VEC3", "max" : [0.23106220364570618, 0.13229800760746002, 0.1662660390138626], "min" : [-0.23106573522090912, -0.23039530217647552, 0.007157452870160341], "name" : "POSITION"}, {"bufferView" : 10, "byteOffset" : 12, "componentType" : 5126, "count" : 4248, "type" : "VEC3", "max" : [0.999882161617279, 0.9947201013565063, 0.9960197806358337], "min" : [-0.9998819828033447, -0.9893696904182434, -0.9932182431221008], "name" : "NORMAL"}, {"bufferView" : 10, "byteOffset" : 24, "componentType" : 5126, "count" : 4248, "type" : "VEC2", "max" : [0.9751015901565552, 0.9874061346054077], "min" : [0.026590295135974884, 0.03654283285140991], "name" : "TEXCOORD_0"}, {"bufferView" : 0, "byteOffset" : 69708, "componentType" : 5123, "count" : 4815, "type" : "SCALAR", "max" : [4814], "min" : [0]}, {"bufferView" : 11, "byteOffset" : 0, "componentType" : 5126, "count" : 4815, "type" : "VEC3", "max" : [0.29571858048439026, 0.1351175606250763, 1.6248440742492676], "min" : [-0.29628586769104004, -0.13859395682811737, 1.046813726425171], "name" : "POSITION"}, {"bufferView" : 11, "byteOffset" : 12, "componentType" : 5126, "count" : 4815, "type" : "VEC3", "max" : [0.9997020363807678, 0.999441921710968, 0.9571079015731812], "min" : [-0.9992930889129639, -0.9998321533203125, -0.9990937113761902], "name" : "NORMAL"}, {"bufferView" : 11, "byteOffset" : 24, "componentType" : 5126, "count" : 4815, "type" : "VEC2", "max" : [0.9936985969543457, 0.9846851825714111], "min" : [0.0032931119203567505, 0.00891876220703125], "name" : "TEXCOORD_0"}, {"bufferView" : 12, "byteOffset" : 0, "componentType" : 5126, "normalized" : false, "count" : 225, "type" : "SCALAR", "max" : [3.7333333333333334], "min" : [0]}, {"bufferView" : 12, "byteOffset" : 900, "componentType" : 5126, "normalized" : false, "count" : 225, "type" : "VEC3", "max" : [0.05102801322937012, 0.0042164321057498455, 1.0109575986862183], "min" : [0.03990323469042778, -0.004547395743429661, 1.0104044675827026]}], "animations" : [{"channels" : [{"sampler" : 0, "target" : {"node" : -1, "path" : "translation"}}], "samplers" : [{"input" : 44, "interpolation" : "CUBICSPLINE", "output" : 45}], "name" : "mixamo.com"}], "asset" : {"generator" : "Aspose.3D 24.6.0", "version" : "2.0"}, "buffers" : [{"uri" : "data:application/octet-stream;base64,", "byteLength" : 1352400}], "bufferViews" : [{"buffer" : 0, "byteOffset" : 0, "byteLength" : 79340, "target" : 34963}, {"buffer" : 0, "byteOffset" : 79344, "byteLength" : 7680, "byteStride" : 32, "target" : 34962}, {"buffer" : 0, "byteOffset" : 87028, "byteLength" : 19776, "byteStride" : 32, "target" : 34962}, {"buffer" : 0, "byteOffset" : 106808, "byteLength" : 19776, "byteStride" : 32, "target" : 34962}, {"buffer" : 0, "byteOffset" : 126588, "byteLength" : 393024, "byteStride" : 32, "target" : 34962}, {"buffer" : 0, "byteOffset" : 519616, "byteLength" : 9600, "byteStride" : 32, "target" : 34962}, {"buffer" : 0, "byteOffset" : 529220, "byteLength" : 127296, "byteStride" : 32, "target" : 34962}, {"buffer" : 0, "byteOffset" : 656520, "byteLength" : 59520, "byteStride" : 32, "target" : 34962}, {"buffer" : 0, "byteOffset" : 716044, "byteLength" : 201408, "byteStride" : 32, "target" : 34962}, {"buffer" : 0, "byteOffset" : 917456, "byteLength" : 141312, "byteStride" : 32, "target" : 34962}, {"buffer" : 0, "byteOffset" : 1058772, "byteLength" : 135936, "byteStride" : 32, "target" : 34962}, {"buffer" : 0, "byteOffset" : 1194712, "byteLength" : 154080, "byteStride" : 32, "target" : 34962}, {"buffer" : 0, "byteOffset" : 1348796, "byteLength" : 3600}], "cameras" : [{"perspective" : {"aspectRatio" : 1.5, "yfov" : 0.6911112070083618, "zfar" : 10000, "znear" : 10.000000149011612}, "type" : "perspective", "name" : "Camera"}], "images" : [{"uri" : "data:image/jpeg;base64,"}, {"uri" : "R:\\temp\\dc0d8e4b-45a5-4928-8840-c223a61162c5.fbm"}, {"uri" : "R:\\temp\\dc0d8e4b-45a5-4928-8840-c223a61162c5.fbm"}, {"uri" : "R:\\temp\\dc0d8e4b-45a5-4928-8840-c223a61162c5.fbm"}, {"uri" : "R:\\temp\\dc0d8e4b-45a5-4928-8840-c223a61162c5.fbm"}, {"uri" : "R:\\temp\\dc0d8e4b-45a5-4928-8840-c223a61162c5.fbm"}, {"uri" : "R:\\temp\\dc0d8e4b-45a5-4928-8840-c223a61162c5.fbm"}, {"uri" : "R:\\temp\\dc0d8e4b-45a5-4928-8840-c223a61162c5.fbm"}, {"uri" : "R:\\temp\\dc0d8e4b-45a5-4928-8840-c223a61162c5.fbm"}, {"uri" : "R:\\temp\\dc0d8e4b-45a5-4928-8840-c223a61162c5.fbm"}, {"uri" : "R:\\temp\\dc0d8e4b-45a5-4928-8840-c223a61162c5.fbm"}, {"uri" : "R:\\temp\\dc0d8e4b-45a5-4928-8840-c223a61162c5.fbm"}, {"uri" : "R:\\temp\\dc0d8e4b-45a5-4928-8840-c223a61162c5.fbm"}, {"uri" : "R:\\temp\\dc0d8e4b-45a5-4928-8840-c223a61162c5.fbm"}], "materials" : [{"name" : "Wolf3D_Eye", "pbrMetallicRoughness" : {"baseColorFactor" : [1, 1, 1, 1], "baseColorTexture" : {"index" : 0, "texCoord" : 0}, "metallicFactor" : 1, "roughnessFactor" : 1}, "emissiveFactor" : [1, 1, 1], "alphaMode" : "OPAQUE", "doubleSided" : false}, {"name" : "Wolf3D_Skin", "pbrMetallicRoughness" : {"baseColorFactor" : [1, 1, 1, 1], "baseColorTexture" : {"index" : 1, "texCoord" : 0}, "metallicFactor" : 1, "roughnessFactor" : 1}, "emissiveFactor" : [1, 1, 1], "alphaMode" : "OPAQUE", "doubleSided" : false}, {"name" : "Wolf3D_Teeth", "pbrMetallicRoughness" : {"baseColorFactor" : [1, 1, 1, 1], "baseColorTexture" : {"index" : 2, "texCoord" : 0}, "metallicFactor" : 1, "roughnessFactor" : 1}, "emissiveFactor" : [1, 1, 1], "alphaMode" : "OPAQUE", "doubleSided" : false}, {"name" : "Wolf3D_Hair", "pbrMetallicRoughness" : {"baseColorFactor" : [1, 1, 1, 1], "baseColorTexture" : {"index" : 4, "texCoord" : 0}, "metallicFactor" : 1, "roughnessFactor" : 1}, "normalTexture" : {"index" : 3, "texCoord" : 0, "scale" : 1}, "emissiveFactor" : [1, 1, 1], "alphaMode" : "OPAQUE", "doubleSided" : false}, {"name" : "Wolf3D_Glasses", "pbrMetallicRoughness" : {"baseColorFactor" : [1, 1, 1, 1], "baseColorTexture" : {"index" : 5, "texCoord" : 0}, "metallicFactor" : 1, "roughnessFactor" : 1}, "emissiveFactor" : [1, 1, 1], "alphaMode" : "OPAQUE", "doubleSided" : false}, {"name" : "Wolf3D_Body", "pbrMetallicRoughness" : {"baseColorFactor" : [1, 1, 1, 1], "baseColorTexture" : {"index" : 7, "texCoord" : 0}, "metallicFactor" : 1, "roughnessFactor" : 1}, "normalTexture" : {"index" : 6, "texCoord" : 0, "scale" : 1}, "emissiveFactor" : [1, 1, 1], "alphaMode" : "OPAQUE", "doubleSided" : false}, {"name" : "Wolf3D_Outfit_Bottom", "pbrMetallicRoughness" : {"baseColorFactor" : [1, 1, 1, 1], "baseColorTexture" : {"index" : 9, "texCoord" : 0}, "metallicFactor" : 1, "roughnessFactor" : 1}, "normalTexture" : {"index" : 8, "texCoord" : 0, "scale" : 1}, "emissiveFactor" : [1, 1, 1], "alphaMode" : "OPAQUE", "doubleSided" : false}, {"name" : "Wolf3D_Outfit_Footwear", "pbrMetallicRoughness" : {"baseColorFactor" : [1, 1, 1, 1], "baseColorTexture" : {"index" : 11, "texCoord" : 0}, "metallicFactor" : 1, "roughnessFactor" : 1}, "normalTexture" : {"index" : 10, "texCoord" : 0, "scale" : 1}, "emissiveFactor" : [1, 1, 1], "alphaMode" : "OPAQUE", "doubleSided" : false}, {"name" : "Wolf3D_Outfit_Top", "pbrMetallicRoughness" : {"baseColorFactor" : [1, 1, 1, 1], "baseColorTexture" : {"index" : 13, "texCoord" : 0}, "metallicFactor" : 1, "roughnessFactor" : 1}, "normalTexture" : {"index" : 12, "texCoord" : 0, "scale" : 1}, "emissiveFactor" : [1, 1, 1], "alphaMode" : "OPAQUE", "doubleSided" : false}], "meshes" : [{"primitives" : [{"attributes" : {"POSITION" : 1, "NORMAL" : 2, "TEXCOORD_0" : 3}, "indices" : 0, "mode" : 4}], "name" : "Icosphere"}, {"primitives" : [{"attributes" : {"POSITION" : 5, "NORMAL" : 6, "TEXCOORD_0" : 7}, "indices" : 4, "material" : 0, "mode" : 4}], "name" : "EyeLeft"}, {"primitives" : [{"attributes" : {"POSITION" : 9, "NORMAL" : 10, "TEXCOORD_0" : 11}, "indices" : 8, "material" : 0, "mode" : 4}], "name" : "EyeRight"}, {"primitives" : [{"attributes" : {"POSITION" : 13, "NORMAL" : 14, "TEXCOORD_0" : 15}, "indices" : 12, "material" : 1, "mode" : 4}], "name" : "Wolf3D_Head"}, {"primitives" : [{"attributes" : {"POSITION" : 17, "NORMAL" : 18, "TEXCOORD_0" : 19}, "indices" : 16, "material" : 2, "mode" : 4}], "name" : "Wolf3D_Teeth"}, {"primitives" : [{"attributes" : {"POSITION" : 21, "NORMAL" : 22, "TEXCOORD_0" : 23}, "indices" : 20, "material" : 3, "mode" : 4}], "name" : "Wolf3D_Hair"}, {"primitives" : [{"attributes" : {"POSITION" : 25, "NORMAL" : 26, "TEXCOORD_0" : 27}, "indices" : 24, "material" : 4, "mode" : 4}], "name" : "Wolf3D_Glasses"}, {"primitives" : [{"attributes" : {"POSITION" : 29, "NORMAL" : 30, "TEXCOORD_0" : 31}, "indices" : 28, "material" : 5, "mode" : 4}], "name" : "Wolf3D_Body"}, {"primitives" : [{"attributes" : {"POSITION" : 33, "NORMAL" : 34, "TEXCOORD_0" : 35}, "indices" : 32, "material" : 6, "mode" : 4}], "name" : "Wolf3D_Outfit_Bottom"}, {"primitives" : [{"attributes" : {"POSITION" : 37, "NORMAL" : 38, "TEXCOORD_0" : 39}, "indices" : 36, "material" : 7, "mode" : 4}], "name" : "Wolf3D_Outfit_Footwear"}, {"primitives" : [{"attributes" : {"POSITION" : 41, "NORMAL" : 42, "TEXCOORD_0" : 43}, "indices" : 40, "material" : 8, "mode" : 4}], "name" : "Wolf3D_Outfit_Top"}], "nodes" : [{"camera" : 0, "matrix" : [-65.15581275167911, -44.527139154551755, -61.417049289096546, 0, -32.401349332924404, 89.5395728270982, -30.542085476036892, 0, 68.59207001076241, 8.666908834403258E-06, -72.76761921184276, 0, 735.88916015625, 495.8309326171875, 692.5791015625, 1], "name" : "Camera"}, {"matrix" : [100, 0, 0, 0, 0, -1.6292067955264296E-05, -99.99999999999866, 0, 0, 99.99999999999866, -1.6292067955264296E-05, 0, 0, 0, 0, 1], "mesh" : 0, "name" : "Icosphere"}, {"matrix" : [100, 0, 0, 0, 0, -1.6292067955264296E-05, -99.99999999999866, 0, 0, 99.99999999999866, -1.6292067955264296E-05, 0, 0, 0, 0, 1], "mesh" : 1, "name" : "EyeLeft"}, {"matrix" : [100, 0, 0, 0, 0, -1.6292067955264296E-05, -99.99999999999866, 0, 0, 99.99999999999866, -1.6292067955264296E-05, 0, 0, 0, 0, 1], "mesh" : 2, "name" : "EyeRight"}, {"matrix" : [100, 0, 0, 0, 0, -1.6292067955264296E-05, -99.99999999999866, 0, 0, 99.99999999999866, -1.6292067955264296E-05, 0, 0, 0, 0, 1], "mesh" : 3, "name" : "Wolf3D_Head"}, {"matrix" : [100, 0, 0, 0, 0, -1.6292067955264296E-05, -99.99999999999866, 0, 0, 99.99999999999866, -1.6292067955264296E-05, 0, 0, 0, 0, 1], "mesh" : 4, "name" : "Wolf3D_Teeth"}, {"matrix" : [100, 0, 0, 0, 0, -1.6292067955264296E-05, -99.99999999999866, 0, 0, 99.99999999999866, -1.6292067955264296E-05, 0, 0, 0, 0, 1], "mesh" : 5, "name" : "Wolf3D_Hair"}, {"matrix" : [100, 0, 0, 0, 0, -1.6292067955264296E-05, -99.99999999999866, 0, 0, 99.99999999999866, -1.6292067955264296E-05, 0, 0, 0, 0, 1], "mesh" : 6, "name" : "Wolf3D_Glasses"}, {"matrix" : [100, 0, 0, 0, 0, -1.6292067955264296E-05, -99.99999999999866, 0, 0, 99.99999999999866, -1.6292067955264296E-05, 0, 0, 0, 0, 1], "mesh" : 7, "name" : "Wolf3D_Body"}, {"matrix" : [100, 0, 0, 0, 0, -1.6292067955264296E-05, -99.99999999999866, 0, 0, 99.99999999999866, -1.6292067955264296E-05, 0, 0, 0, 0, 1], "mesh" : 8, "name" : "Wolf3D_Outfit_Bottom"}, {"matrix" : [100, 0, 0, 0, 0, -1.6292067955264296E-05, -99.99999999999866, 0, 0, 99.99999999999866, -1.6292067955264296E-05, 0, 0, 0, 0, 1], "mesh" : 9, "name" : "Wolf3D_Outfit_Footwear"}, {"matrix" : [100, 0, 0, 0, 0, -1.6292067955264296E-05, -99.99999999999866, 0, 0, 99.99999999999866, -1.6292067955264296E-05, 0, 0, 0, 0, 1], "mesh" : 10, "name" : "Wolf3D_Outfit_Top"}], "samplers" : [{"magFilter" : 9729, "minFilter" : 9729, "wrapS" : 10497, "wrapT" : 10497}, {"magFilter" : 9729, "minFilter" : 9729, "wrapS" : 10497, "wrapT" : 10497}, {"magFilter" : 9729, "minFilter" : 9729, "wrapS" : 10497, "wrapT" : 10497}, {"magFilter" : 9729, "minFilter" : 9729, "wrapS" : 10497, "wrapT" : 10497}, {"magFilter" : 9729, "minFilter" : 9729, "wrapS" : 10497, "wrapT" : 10497}, {"magFilter" : 9729, "minFilter" : 9729, "wrapS" : 33071, "wrapT" : 33071}, {"magFilter" : 9729, "minFilter" : 9729, "wrapS" : 10497, "wrapT" : 10497}, {"magFilter" : 9729, "minFilter" : 9729, "wrapS" : 10497, "wrapT" : 10497}, {"magFilter" : 9729, "minFilter" : 9729, "wrapS" : 10497, "wrapT" : 10497}, {"magFilter" : 9729, "minFilter" : 9729, "wrapS" : 10497, "wrapT" : 10497}, {"magFilter" : 9729, "minFilter" : 9729, "wrapS" : 10497, "wrapT" : 10497}, {"magFilter" : 9729, "minFilter" : 9729, "wrapS" : 10497, "wrapT" : 10497}, {"magFilter" : 9729, "minFilter" : 9729, "wrapS" : 10497, "wrapT" : 10497}, {"magFilter" : 9729, "minFilter" : 9729, "wrapS" : 10497, "wrapT" : 10497}], "scene" : 0, "scenes" : [{"nodes" : [0, 1, 2, 3, 4, 5, 6, 7, 8, 9, 10, 11]}], "textures" : [{"sampler" : 0, "source" : 0, "name" : "base_color_texture"}, {"sampler" : 1, "source" : 1, "name" : "base_color_texture"}, {"sampler" : 2, "source" : 2, "name" : "base_color_texture"}, {"sampler" : 3, "source" : 3, "name" : "normalmap_texture"}, {"sampler" : 4, "source" : 4, "name" : "base_color_texture"}, {"sampler" : 5, "source" : 5, "name" : "base_color_texture"}, {"sampler" : 6, "source" : 6, "name" : "normalmap_texture"}, {"sampler" : 7, "source" : 7, "name" : "base_color_texture"}, {"sampler" : 8, "source" : 8, "name" : "normalmap_texture"}, {"sampler" : 9, "source" : 9, "name" : "base_color_texture"}, {"sampler" : 10, "source" : 10, "name" : "normalmap_texture"}, {"sampler" : 11, "source" : 11, "name" : "base_color_texture"}, {"sampler" : 12, "source" : 12, "name" : "normalmap_texture"}, {"sampler" : 13, "source" : 13, "name" : "base_color_texture"}]}